<?xml version="1.0" encoding="UTF-8" standalone="no"?>
<svg
   xmlns:dc="http://purl.org/dc/elements/1.1/"
   xmlns:cc="http://creativecommons.org/ns#"
   xmlns:rdf="http://www.w3.org/1999/02/22-rdf-syntax-ns#"
   xmlns:svg="http://www.w3.org/2000/svg"
   xmlns="http://www.w3.org/2000/svg"
   xmlns:sodipodi="http://sodipodi.sourceforge.net/DTD/sodipodi-0.dtd"
   xmlns:inkscape="http://www.inkscape.org/namespaces/inkscape"
   sodipodi:docname="Logo-A2C.svg"
   inkscape:version="1.0 (4035a4f, 2020-05-01)"
   id="svg1096"
   version="1.1"
   viewBox="0 0 210 297"
   height="297mm"
   width="210mm">
  <defs
     id="defs1090" />
  <sodipodi:namedview
     inkscape:window-maximized="0"
     inkscape:window-y="25"
     inkscape:window-x="0"
     inkscape:window-height="762"
     inkscape:window-width="1434"
     showgrid="false"
     inkscape:document-rotation="0"
     inkscape:current-layer="layer1"
     inkscape:document-units="mm"
     inkscape:cy="560"
     inkscape:cx="1130"
     inkscape:zoom="0.35"
     inkscape:pageshadow="2"
     inkscape:pageopacity="0.0"
     borderopacity="1.0"
     bordercolor="#666666"
     pagecolor="#ffffff"
     id="base" />
  <metadata
     id="metadata1093">
    <rdf:RDF>
      <cc:Work
         rdf:about="">
        <dc:format>image/svg+xml</dc:format>
        <dc:type
           rdf:resource="http://purl.org/dc/dcmitype/StillImage" />
        <dc:title></dc:title>
      </cc:Work>
    </rdf:RDF>
  </metadata>
  <g
     id="layer1"
     inkscape:groupmode="layer"
     inkscape:label="Calque 1">
    <circle
       inkscape:export-ydpi="24.544682"
       inkscape:export-xdpi="24.544682"
       r="6.5014501"
       cy="124.33739"
       cx="110.05143"
       id="path3039-3-8"
       style="opacity:1;fill:#000000;fill-opacity:1;stroke:#000000;stroke-width:0.288951;stroke-opacity:1" />
    <path
       inkscape:export-ydpi="24.544682"
       inkscape:export-xdpi="24.544682"
       d="m 96.684861,104.60078 a 6.5014501,6.5014501 0 0 0 -6.435264,6.50141 6.5014501,6.5014501 0 0 0 6.50141,6.50141 6.5014501,6.5014501 0 0 0 5.837373,-3.63905 7.7071442,7.8181454 0 0 1 -0.53227,-2.85409 7.7071442,7.8181454 0 0 1 0.53537,-2.86339 6.5014501,6.5014501 0 0 0 -5.840473,-3.64629 6.5014501,6.5014501 0 0 0 -0.06615,0 z"
       style="opacity:1;fill:#000000;fill-opacity:1;stroke:#000000;stroke-width:0.288951;stroke-opacity:1"
       id="path3039" />
    <path
       inkscape:export-ydpi="24.544682"
       inkscape:export-xdpi="24.544682"
       d="m 109.99878,91.411401 a 6.5014501,6.5014501 0 0 0 -6.43527,6.501413 6.5014501,6.5014501 0 0 0 3.62355,5.829616 7.7071442,7.8181454 0 0 1 2.57607,-0.44958 7.7071442,7.8181454 0 0 1 2.90577,0.57671 6.5014501,6.5014501 0 0 0 3.89744,-5.956746 6.5014501,6.5014501 0 0 0 -6.50142,-6.501413 6.5014501,6.5014501 0 0 0 -0.0662,0 z"
       style="opacity:1;fill:#000000;fill-opacity:1;stroke:#000000;stroke-width:0.288951;stroke-opacity:1"
       id="path3039-3" />
    <path
       inkscape:export-ydpi="24.544682"
       inkscape:export-xdpi="24.544682"
       d="m 105.28434,98.87503 -7.483784,7.48378 3.741894,3.74137 0.70073,-0.70073 a 7.7071442,7.8181454 0 0 1 5.94124,-5.94124 l 0.84129,-0.84129 z"
       style="opacity:1;fill:#000000;fill-opacity:1;stroke:#000000;stroke-width:0.264583;stroke-opacity:1"
       id="rect3079" />
    <path
       inkscape:export-ydpi="24.544682"
       inkscape:export-xdpi="24.544682"
       d="m 123.23776,104.60078 a 6.5014501,6.5014501 0 0 0 -6.50141,6.50193 6.5014501,6.5014501 0 0 0 6.50141,6.50141 6.5014501,6.5014501 0 0 0 5.8198,-3.60288 7.7071442,7.8181454 0 0 1 -0.54363,-2.88355 7.7071442,7.8181454 0 0 1 0.54983,-2.9006 6.5014501,6.5014501 0 0 0 -5.826,-3.61631 z"
       style="opacity:1;fill:#000000;fill-opacity:1;stroke:#000000;stroke-width:0.288951;stroke-opacity:1"
       id="path3039-5" />
    <circle
       inkscape:export-ydpi="24.544682"
       inkscape:export-xdpi="24.544682"
       r="6.5014501"
       cy="97.912483"
       cx="136.55188"
       id="path3039-3-7"
       style="opacity:1;fill:#000000;fill-opacity:1;stroke:#000000;stroke-width:0.288951;stroke-opacity:1" />
    <path
       inkscape:export-ydpi="24.544682"
       inkscape:export-xdpi="24.544682"
       d="m 139.10914,118.36583 a 7.7071442,7.8181454 0 0 1 -2.88819,0.56999 7.7071442,7.8181454 0 0 1 -2.54093,-0.43718 6.5014501,6.5014501 0 0 0 -3.64319,5.83892 6.5014501,6.5014501 0 0 0 6.50141,6.50141 6.5014501,6.5014501 0 0 0 6.50141,-6.50141 6.5014501,6.5014501 0 0 0 -3.93051,-5.97173 z"
       style="opacity:1;fill:#000000;fill-opacity:1;stroke:#000000;stroke-width:0.288951;stroke-opacity:1"
       id="path3039-3-8-1" />
    <path
       inkscape:export-ydpi="24.544682"
       inkscape:export-xdpi="24.544682"
       d="m 131.77109,98.87503 -7.48326,7.48326 3.74189,3.74189 0.66559,-0.66559 a 7.7071442,7.8181449 0 0 1 5.97483,-5.97534 l 0.84284,-0.84285 z"
       style="opacity:1;fill:#000000;fill-opacity:1;stroke:#000000;stroke-width:0.264583;stroke-opacity:1"
       id="rect3079-4" />
    <path
       inkscape:export-ydpi="24.544682"
       inkscape:export-xdpi="24.544682"
       d="m 128.06227,112.1166 -3.74189,3.74189 7.48379,7.48378 3.74189,-3.74189 -0.81184,-0.81184 a 7.7071442,7.8181454 0 0 1 -6.05338,-6.05338 z"
       style="opacity:1;fill:#000000;fill-opacity:1;stroke:#000000;stroke-width:0.264583;stroke-opacity:1"
       id="rect3079-7-4" />
    <path
       inkscape:export-ydpi="24.544682"
       inkscape:export-xdpi="24.544682"
       d="m 114.77936,98.877612 -3.74189,3.741888 1.01493,1.01493 a 7.7241405,7.8353491 0 0 1 5.06222,5.06222 l 1.40612,1.40612 3.74189,-3.74189 z"
       style="opacity:1;fill:#000000;fill-opacity:1;stroke:#000000;stroke-width:0.264583;stroke-opacity:1"
       id="rect3079-7-4-3" />
    <path
       inkscape:export-ydpi="24.544682"
       inkscape:export-xdpi="24.544682"
       d="m 144.99147,112.13675 -1.46141,1.46141 a 7.7071442,7.8181454 0 0 1 -4.96765,4.96766 l -1.05472,1.05471 3.74189,3.74189 7.48327,-7.48378 z"
       style="opacity:1;fill:#000000;fill-opacity:1;stroke:#000000;stroke-width:0.264583;stroke-opacity:1"
       id="rect3079-4-0" />
    <circle
       inkscape:export-ydpi="24.544682"
       inkscape:export-xdpi="24.544682"
       r="6.5014501"
       cy="111.08041"
       cx="149.68942"
       id="path3039-3-8-1-8"
       style="opacity:1;fill:#000000;fill-opacity:1;stroke:#000000;stroke-width:0.288951;stroke-opacity:1" />
    <path
       inkscape:export-ydpi="24.544682"
       inkscape:export-xdpi="24.544682"
       d="m 101.575,112.11711 -3.741371,3.74138 7.483261,7.48378 3.74189,-3.74189 -0.82785,-0.82786 a 7.7071442,7.8181454 0 0 1 -5.99809,-5.99757 z"
       style="opacity:1;fill:#000000;fill-opacity:1;stroke:#000000;stroke-width:0.264583;stroke-opacity:1"
       id="rect3079-7" />
  </g>
</svg>
