<?xml version="1.0" encoding="UTF-8" standalone="no"?>
<svg
   xmlns:dc="http://purl.org/dc/elements/1.1/"
   xmlns:cc="http://creativecommons.org/ns#"
   xmlns:rdf="http://www.w3.org/1999/02/22-rdf-syntax-ns#"
   xmlns:svg="http://www.w3.org/2000/svg"
   xmlns="http://www.w3.org/2000/svg"
   xmlns:sodipodi="http://sodipodi.sourceforge.net/DTD/sodipodi-0.dtd"
   xmlns:inkscape="http://www.inkscape.org/namespaces/inkscape"
   width="210mm"
   height="297mm"
   viewBox="0 0 210 297"
   version="1.1"
   id="svg1185"
   inkscape:export-filename="/Users/valerieferrer/Downloads/logo-favicon.png"
   inkscape:export-xdpi="17.054285"
   inkscape:export-ydpi="17.054285"
   inkscape:version="1.0 (4035a4f, 2020-05-01)"
   sodipodi:docname="Real final Logo - transparent - ASquared.svg">
  <defs
     id="defs1179" />
  <sodipodi:namedview
     inkscape:guide-bbox="true"
     showguides="true"
     id="base"
     pagecolor="#ffffff"
     bordercolor="#666666"
     borderopacity="1.0"
     inkscape:pageopacity="0.0"
     inkscape:pageshadow="2"
     inkscape:zoom="0.56695879"
     inkscape:cx="487.95653"
     inkscape:cy="737.48812"
     inkscape:document-units="mm"
     inkscape:current-layer="layer1"
     inkscape:document-rotation="0"
     showgrid="true"
     inkscape:window-width="1440"
     inkscape:window-height="900"
     inkscape:window-x="0"
     inkscape:window-y="0"
     inkscape:window-maximized="0">
    <inkscape:grid
       type="xygrid"
       id="grid3958" />
    <sodipodi:guide
       id="guide2976"
       orientation="1,0"
       position="55.5625,147.51042" />
    <sodipodi:guide
       id="guide2978"
       orientation="1,0"
       position="62.177083,158.09375" />
    <sodipodi:guide
       id="guide2980"
       orientation="0,-1"
       position="31.75,147.51042" />
    <sodipodi:guide
       id="guide2982"
       orientation="0,-1"
       position="38.364583,154.125" />
    <sodipodi:guide
       id="guide2984"
       orientation="0,-1"
       position="34.395833,140.89583" />
    <sodipodi:guide
       id="guide2986"
       orientation="1,0"
       position="48.947917,156.77083" />
    <sodipodi:guide
       id="guide2988"
       orientation="1,0"
       position="68.791667,156.77083" />
    <sodipodi:guide
       id="guide3037"
       orientation="1,0"
       position="42.333333,156.77083" />
    <sodipodi:guide
       id="guide3056"
       orientation="0,-1"
       position="59.531249,160.73959" />
    <sodipodi:guide
       id="guide3058"
       orientation="0,-1"
       position="76.729167,167.35417" />
    <sodipodi:guide
       id="guide3075"
       orientation="0,-1"
       position="70.114584,134.28125" />
    <sodipodi:guide
       id="guide3077"
       orientation="0,-1"
       position="72.760417,127.66667" />
    <sodipodi:guide
       id="guide3111"
       orientation="1,0"
       position="54.239583,159.41667" />
    <sodipodi:guide
       id="guide3179"
       orientation="1,0"
       position="75.406248,138.25" />
    <sodipodi:guide
       id="guide3181"
       orientation="1,0"
       position="84.666667,48.291667" />
    <sodipodi:guide
       id="guide3231"
       orientation="1,0"
       position="95.249998,167.35417" />
    <sodipodi:guide
       id="guide3233"
       orientation="1,0"
       position="101.86458,160.73959" />
    <sodipodi:guide
       id="guide3250"
       orientation="1,0"
       position="62.177083,163.38542" />
    <sodipodi:guide
       id="guide3252"
       orientation="1,0"
       position="62.177082,167.35417" />
    <sodipodi:guide
       id="guide3254"
       orientation="1,0"
       position="61.9125,157.3" />
    <sodipodi:guide
       id="guide3256"
       orientation="1,0"
       position="88.635415,152.80209" />
    <sodipodi:guide
       id="guide3258"
       orientation="1,0"
       position="88.635415,37.708333" />
    <sodipodi:guide
       id="guide4099"
       orientation="0,-1"
       position="58.208332,87.979169" />
  </sodipodi:namedview>
  <metadata
     id="metadata1182">
    <rdf:RDF>
      <cc:Work
         rdf:about="">
        <dc:format>image/svg+xml</dc:format>
        <dc:type
           rdf:resource="http://purl.org/dc/dcmitype/StillImage" />
        <dc:title></dc:title>
      </cc:Work>
    </rdf:RDF>
  </metadata>
  <g
     inkscape:label="Calque 1"
     inkscape:groupmode="layer"
     id="layer1">
    <circle
       inkscape:export-ydpi="24.544682"
       inkscape:export-xdpi="24.544682"
       r="6.5014501"
       cy="162.71083"
       cx="62.199245"
       id="path3039-3-8"
       style="opacity:1;fill:#000000;fill-opacity:1;stroke:#000000;stroke-width:0.288951;stroke-opacity:1" />
    <path
       transform="scale(0.26458333)"
       id="path2586"
       d=""
       style="fill:#000000;fill-opacity:0;stroke:#000000;stroke-width:0.714286;stroke-opacity:1" />
    <path
       transform="scale(0.26458333)"
       id="path2588"
       d=""
       style="fill:#000000;fill-opacity:0;stroke:#000000;stroke-width:0.714286;stroke-opacity:1" />
    <rect
       y="134.9375"
       x="97.895836"
       height="13.229166"
       width="26.458332"
       id="rect2663"
       style="opacity:0;fill:#000000;fill-opacity:1;stroke:#000000;stroke-width:0.264583;stroke-opacity:1" />
    <rect
       y="132.29167"
       x="84.099701"
       height="13.229166"
       width="44.979168"
       id="rect2665"
       style="opacity:0;fill:#000000;fill-opacity:1.0;stroke:#000000;stroke-width:0.264583;stroke-opacity:1" />
    <ellipse
       ry="6.4036865"
       rx="6.5926752"
       cy="178.38431"
       cx="131.23427"
       id="path2598-4-3"
       style="opacity:1;fill:#000000;fill-opacity:1;stroke:#000000;stroke-width:0.308401;stroke-opacity:1" />
    <ellipse
       ry="6.4036865"
       rx="6.5926752"
       cy="188.86209"
       cx="146.68901"
       id="path2598-4-35"
       style="opacity:1;fill:#000000;fill-opacity:1;stroke:#000000;stroke-width:0.308401;stroke-opacity:1" />
    <ellipse
       ry="6.4036865"
       rx="6.5926752"
       cy="187.02849"
       cx="160.57208"
       id="path2598-4-1"
       style="opacity:1;fill:#000000;fill-opacity:1;stroke:#000000;stroke-width:0.308401;stroke-opacity:1" />
    <path
       inkscape:export-ydpi="24.544682"
       inkscape:export-xdpi="24.544682"
       transform="scale(0.26458333)"
       d="M 184.56445 540.375 A 24.57241 24.57241 0 0 0 160.24219 564.94727 A 24.57241 24.57241 0 0 0 184.81445 589.51953 A 24.57241 24.57241 0 0 0 206.87695 575.76562 A 29.129364 29.548896 0 0 1 204.86523 564.97852 A 29.129364 29.548896 0 0 1 206.88867 554.15625 A 24.57241 24.57241 0 0 0 184.81445 540.375 A 24.57241 24.57241 0 0 0 184.56445 540.375 z "
       style="opacity:1;fill:#000000;fill-opacity:1;stroke:#000000;stroke-width:1.0921;stroke-opacity:1"
       id="path3039" />
    <path
       inkscape:export-ydpi="24.544682"
       inkscape:export-xdpi="24.544682"
       transform="scale(0.26458333)"
       d="M 234.88477 490.52539 A 24.57241 24.57241 0 0 0 210.5625 515.09766 A 24.57241 24.57241 0 0 0 224.25781 537.13086 A 29.129364 29.548896 0 0 1 233.99414 535.43164 A 29.129364 29.548896 0 0 1 244.97656 537.61133 A 24.57241 24.57241 0 0 0 259.70703 515.09766 A 24.57241 24.57241 0 0 0 235.13477 490.52539 A 24.57241 24.57241 0 0 0 234.88477 490.52539 z "
       style="opacity:1;fill:#000000;fill-opacity:1;stroke:#000000;stroke-width:1.0921;stroke-opacity:1"
       id="path3039-3" />
    <path
       inkscape:export-ydpi="24.544682"
       inkscape:export-xdpi="24.544682"
       transform="scale(0.26458333)"
       d="M 217.06641 518.73438 L 188.78125 547.01953 L 202.92383 561.16016 L 205.57227 558.51172 A 29.129364 29.548896 0 0 1 228.02734 536.05664 L 231.20703 532.87695 L 217.06641 518.73438 z "
       style="opacity:1;fill:#000000;fill-opacity:1;stroke:#000000;stroke-width:0.999999;stroke-opacity:1"
       id="rect3079" />
    <rect
       style="opacity:1;fill:#000000;fill-opacity:1;stroke:#000000;stroke-width:0.264583;stroke-opacity:1"
       id="rect3079-5"
       width="10.583333"
       height="5.2916665"
       x="21.221741"
       y="183.66788"
       transform="rotate(-45)" />
    <rect
       style="opacity:1;fill:#000000;fill-opacity:1;stroke:#000000;stroke-width:0.264583;stroke-opacity:1"
       id="rect3079-6"
       width="10.583333"
       height="5.2916665"
       x="43.672382"
       y="206.11853"
       transform="rotate(-45)" />
    <path
       inkscape:export-ydpi="24.544682"
       inkscape:export-xdpi="24.544682"
       transform="scale(0.26458333)"
       d="M 284.92188 540.375 A 24.57241 24.57241 0 0 0 260.34961 564.94922 A 24.57241 24.57241 0 0 0 284.92188 589.52148 A 24.57241 24.57241 0 0 0 306.91797 575.9043 A 29.129364 29.548896 0 0 1 304.86328 565.00586 A 29.129364 29.548896 0 0 1 306.94141 554.04297 A 24.57241 24.57241 0 0 0 284.92188 540.375 z "
       style="opacity:1;fill:#000000;fill-opacity:1;stroke:#000000;stroke-width:1.0921;stroke-opacity:1"
       id="path3039-5" />
    <circle
       inkscape:export-ydpi="24.544682"
       inkscape:export-xdpi="24.544682"
       r="6.5014501"
       cy="136.28592"
       cx="88.699692"
       id="path3039-3-7"
       style="opacity:1;fill:#000000;fill-opacity:1;stroke:#000000;stroke-width:0.288951;stroke-opacity:1" />
    <path
       inkscape:export-ydpi="24.544682"
       inkscape:export-xdpi="24.544682"
       transform="scale(0.26458333)"
       d="M 344.9082 592.40039 A 29.129364 29.548896 0 0 1 333.99219 594.55469 A 29.129364 29.548896 0 0 1 324.38867 592.90234 A 24.57241 24.57241 0 0 0 310.61914 614.9707 A 24.57241 24.57241 0 0 0 335.19141 639.54297 A 24.57241 24.57241 0 0 0 359.76367 614.9707 A 24.57241 24.57241 0 0 0 344.9082 592.40039 z "
       style="opacity:1;fill:#000000;fill-opacity:1;stroke:#000000;stroke-width:1.0921;stroke-opacity:1"
       id="path3039-3-8-1" />
    <path
       inkscape:export-ydpi="24.544682"
       inkscape:export-xdpi="24.544682"
       transform="scale(0.26458333)"
       d="M 317.17383 518.73438 L 288.89062 547.01758 L 303.0332 561.16016 L 305.54883 558.64453 A 29.129364 29.548894 0 0 1 328.13086 536.06055 L 331.31641 532.875 L 317.17383 518.73438 z "
       style="opacity:1;fill:#000000;fill-opacity:1;stroke:#000000;stroke-width:0.999999;stroke-opacity:1"
       id="rect3079-4" />
    <path
       inkscape:export-ydpi="24.544682"
       inkscape:export-xdpi="24.544682"
       transform="scale(0.26458333)"
       d="M 303.15625 568.78125 L 289.01367 582.92383 L 317.29883 611.20898 L 331.44141 597.06641 L 328.37305 593.99805 A 29.129364 29.548896 0 0 1 305.49414 571.11914 L 303.15625 568.78125 z "
       style="opacity:1;fill:#000000;fill-opacity:1;stroke:#000000;stroke-width:0.999999;stroke-opacity:1"
       id="rect3079-7-4" />
    <path
       inkscape:export-ydpi="24.544682"
       inkscape:export-xdpi="24.544682"
       transform="scale(0.26458333)"
       d="M 252.95312 518.74414 L 238.81055 532.88672 L 242.64648 536.72266 A 29.193602 29.613918 0 0 1 261.7793 555.85547 L 267.09375 561.16992 L 281.23633 547.02734 L 252.95312 518.74414 z "
       style="opacity:1;fill:#000000;fill-opacity:1;stroke:#000000;stroke-width:0.999999;stroke-opacity:1"
       id="rect3079-7-4-3" />
    <path
       inkscape:export-ydpi="24.544682"
       inkscape:export-xdpi="24.544682"
       transform="scale(0.26458333)"
       d="M 367.14062 568.85742 L 361.61719 574.38086 A 29.129364 29.548896 0 0 1 342.8418 593.15625 L 338.85547 597.14258 L 352.99805 611.28516 L 381.28125 583 L 367.14062 568.85742 z "
       style="opacity:1;fill:#000000;fill-opacity:1;stroke:#000000;stroke-width:0.999999;stroke-opacity:1"
       id="rect3079-4-0" />
    <circle
       inkscape:export-ydpi="24.544682"
       inkscape:export-xdpi="24.544682"
       r="6.5014501"
       cy="149.45386"
       cx="101.83724"
       id="path3039-3-8-1-8"
       style="opacity:1;fill:#000000;fill-opacity:1;stroke:#000000;stroke-width:0.288951;stroke-opacity:1" />
    <circle
       r="0"
       style="opacity:1;fill:#00ff00;fill-opacity:1;stroke:#000000;stroke-width:0.345755;stroke-opacity:1"
       id="path3039-3-2-7"
       cx="61.916378"
       cy="149.49248" />
    <circle
       r="0"
       style="opacity:1;fill:#00ff00;fill-opacity:1;stroke:#000000;stroke-width:0.345755;stroke-opacity:1"
       id="path3039-3-2-1"
       cx="61.916378"
       cy="149.49248" />
    <circle
       r="0"
       style="opacity:1;fill:#00ff00;fill-opacity:1;stroke:#000000;stroke-width:0.345755;stroke-opacity:1"
       id="path3039-3-2-9"
       cx="61.916378"
       cy="149.49248" />
    <circle
       r="0"
       style="opacity:1;fill:#00ff00;fill-opacity:1;stroke:#000000;stroke-width:0.345755;stroke-opacity:1"
       id="path3039-3-2-93"
       cx="61.916378"
       cy="149.49248" />
    <circle
       r="0"
       style="opacity:1;fill:#00ff00;fill-opacity:1;stroke:#000000;stroke-width:0.345755;stroke-opacity:1"
       id="path3039-3-2-4"
       cx="61.916378"
       cy="149.49248" />
    <circle
       r="0"
       style="opacity:1;fill:#00ff00;fill-opacity:1;stroke:#000000;stroke-width:0.345755;stroke-opacity:1"
       id="path3039-3-2-91"
       cx="61.916378"
       cy="149.49248" />
    <circle
       r="0"
       style="opacity:1;fill:#00ff00;fill-opacity:1;stroke:#000000;stroke-width:0.345755;stroke-opacity:1"
       id="path3039-3-2-74"
       cx="61.916378"
       cy="149.49248" />
    <circle
       r="0"
       style="opacity:1;fill:#00ff00;fill-opacity:1;stroke:#000000;stroke-width:0.345755;stroke-opacity:1"
       id="path3039-3-2-743"
       cx="61.916378"
       cy="149.49248" />
    <circle
       r="0"
       style="opacity:1;fill:#00ff00;fill-opacity:1;stroke:#000000;stroke-width:0.345755;stroke-opacity:1"
       id="path3039-3-2-49"
       cx="61.916378"
       cy="149.49248" />
    <circle
       r="0"
       style="opacity:1;fill:#00ff00;fill-opacity:1;stroke:#000000;stroke-width:0.345755;stroke-opacity:1"
       id="path3039-3-2-492"
       cx="61.916378"
       cy="149.49248" />
    <circle
       r="0"
       style="opacity:1;fill:#00ff00;fill-opacity:1;stroke:#000000;stroke-width:0.345755;stroke-opacity:1"
       id="path3039-3-2-5"
       cx="61.916378"
       cy="149.49248" />
    <circle
       r="0"
       style="opacity:1;fill:#00ff00;fill-opacity:1;stroke:#000000;stroke-width:0.345755;stroke-opacity:1"
       id="path3039-3-2-2"
       cx="61.916378"
       cy="149.49248" />
    <circle
       r="0"
       style="opacity:1;fill:#00ff00;fill-opacity:1;stroke:#000000;stroke-width:0.345755;stroke-opacity:1"
       id="path3039-3-2-96"
       cx="61.916378"
       cy="149.49248" />
    <circle
       r="0"
       style="opacity:1;fill:#00ff00;fill-opacity:1;stroke:#000000;stroke-width:0.345755;stroke-opacity:1"
       id="path3039-3-2-12"
       cx="61.916378"
       cy="149.49248" />
    <circle
       r="0"
       style="opacity:1;fill:#00ff00;fill-opacity:1;stroke:#000000;stroke-width:0.345755;stroke-opacity:1"
       id="path3039-3-2-0"
       cx="61.916378"
       cy="149.49248" />
    <circle
       r="0"
       style="opacity:1;fill:#00ff00;fill-opacity:1;stroke:#000000;stroke-width:0.345755;stroke-opacity:1"
       id="path3039-3-2-8"
       cx="61.916378"
       cy="149.49248" />
    <circle
       r="0"
       style="opacity:1;fill:#ff0000;fill-opacity:1;stroke:#000000;stroke-width:0.345755;stroke-opacity:1"
       id="path3039-3-2-79"
       cx="61.916378"
       cy="149.49248" />
    <circle
       r="0"
       style="opacity:1;fill:#ff0000;fill-opacity:1;stroke:#000000;stroke-width:0.345755;stroke-opacity:1"
       id="path3039-3-2-18"
       cx="61.916378"
       cy="149.49248" />
    <circle
       r="0"
       style="opacity:1;fill:#ff0000;fill-opacity:1;stroke:#000000;stroke-width:0.345755;stroke-opacity:1"
       id="path3039-3-2-08"
       cx="61.916378"
       cy="149.49248" />
    <circle
       r="0"
       style="opacity:1;fill:#ff0000;fill-opacity:1;stroke:#000000;stroke-width:0.345755;stroke-opacity:1"
       id="path3039-3-2-98"
       cx="61.916378"
       cy="149.49248" />
    <circle
       r="0"
       style="opacity:1;fill:#ff0000;fill-opacity:1;stroke:#000000;stroke-width:0.345755;stroke-opacity:1"
       id="path3039-3-2-3"
       cx="61.916378"
       cy="149.49248" />
    <circle
       cy="149.49248"
       cx="61.916378"
       id="path3039-3-2-3-2"
       style="opacity:1;fill:#ff0000;fill-opacity:1;stroke:#000000;stroke-width:0.345755;stroke-opacity:1"
       r="0" />
    <circle
       r="0"
       style="opacity:1;fill:#ff0000;fill-opacity:1;stroke:#000000;stroke-width:0.345755;stroke-opacity:1"
       id="path3039-3-2-76"
       cx="61.916378"
       cy="149.49248" />
    <circle
       r="0"
       style="opacity:1;fill:#ff0000;fill-opacity:1;stroke:#000000;stroke-width:0.345755;stroke-opacity:1"
       id="path3039-3-2-120"
       cx="61.916378"
       cy="149.49248" />
    <circle
       r="0"
       style="opacity:1;fill:#ff0000;fill-opacity:1;stroke:#000000;stroke-width:0.345755;stroke-opacity:1"
       id="path3039-3-2-97"
       cx="61.916378"
       cy="149.49248" />
    <circle
       r="0"
       style="opacity:1;fill:#ff0000;fill-opacity:1;stroke:#000000;stroke-width:0.345755;stroke-opacity:1"
       id="path3039-3-2-85"
       cx="61.916378"
       cy="149.49248" />
    <ellipse
       style="opacity:1;fill:#ff0000;fill-opacity:1;stroke:#000000;stroke-width:0.379711;stroke-opacity:1"
       id="path3680-2"
       cx="142.16881"
       cy="145.94395"
       rx="7.7071443"
       ry="7.8181453" />
    <ellipse
       style="opacity:1;fill:#ff0000;fill-opacity:1;stroke:#000000;stroke-width:0.379711;stroke-opacity:1"
       id="path3680-5"
       cx="145.27882"
       cy="151.33276"
       rx="7.7071443"
       ry="7.8181453" />
    <ellipse
       style="opacity:1;fill:#ff0000;fill-opacity:1;stroke:#000000;stroke-width:0.379711;stroke-opacity:1"
       id="path3680-8"
       cx="157.24731"
       cy="157.06766"
       rx="7.7071443"
       ry="7.8181453" />
    <ellipse
       style="opacity:1;fill:#ff0000;fill-opacity:1;stroke:#000000;stroke-width:0.379711;stroke-opacity:1"
       id="path3680-0"
       cx="173.76642"
       cy="154.67816"
       rx="7.7071443"
       ry="7.8181453" />
    <ellipse
       style="opacity:1;fill:#ff0000;fill-opacity:1;stroke:#000000;stroke-width:0.379711;stroke-opacity:1"
       id="path3680-29"
       cx="185.38861"
       cy="181.03934"
       rx="7.7071443"
       ry="7.8181453" />
    <path
       inkscape:export-ydpi="24.544682"
       inkscape:export-xdpi="24.544682"
       transform="scale(0.26458333)"
       d="M 203.04688 568.7832 L 188.90625 582.92383 L 217.18945 611.20898 L 231.33203 597.06641 L 228.20312 593.9375 A 29.129364 29.548896 0 0 1 205.5332 571.26953 L 203.04688 568.7832 z "
       style="opacity:1;fill:#000000;fill-opacity:1;stroke:#000000;stroke-width:0.999999;stroke-opacity:1"
       id="rect3079-7" />
    <circle
       style="opacity:1;fill:#000000;fill-opacity:1;stroke:#000000;stroke-width:0.288951;stroke-opacity:1"
       id="path3039-3-8-3"
       cx="62.259312"
       cy="222.27084"
       r="6.5014501"
       inkscape:export-xdpi="6.1575766"
       inkscape:export-ydpi="6.1575766" />
    <path
       id="path3039-9"
       style="opacity:1;fill:#000000;fill-opacity:1;stroke:#000000;stroke-width:0.288951;stroke-opacity:1"
       d="m 48.892741,202.53438 a 6.5014501,6.5014501 0 0 0 -6.435265,6.50141 6.5014501,6.5014501 0 0 0 6.50141,6.50141 6.5014501,6.5014501 0 0 0 5.83737,-3.63906 7.7071442,7.8181454 0 0 1 -0.532268,-2.85408 7.7071442,7.8181454 0 0 1 0.535369,-2.8634 6.5014501,6.5014501 0 0 0 -5.840471,-3.64628 6.5014501,6.5014501 0 0 0 -0.06615,0 z"
       inkscape:export-xdpi="6.1575766"
       inkscape:export-ydpi="6.1575766" />
    <path
       id="path3039-3-3"
       style="opacity:1;fill:#000000;fill-opacity:1;stroke:#000000;stroke-width:0.288951;stroke-opacity:1"
       d="m 62.20666,189.345 a 6.5014501,6.5014501 0 0 0 -6.435269,6.50141 6.5014501,6.5014501 0 0 0 3.623551,5.82962 7.7071442,7.8181454 0 0 1 2.576068,-0.44959 7.7071442,7.8181454 0 0 1 2.90577,0.57671 6.5014501,6.5014501 0 0 0 3.89744,-5.95674 6.5014501,6.5014501 0 0 0 -6.50142,-6.50141 6.5014501,6.5014501 0 0 0 -0.0661,0 z"
       inkscape:export-xdpi="6.1575766"
       inkscape:export-ydpi="6.1575766" />
    <path
       id="rect3079-66"
       style="opacity:1;fill:#000000;fill-opacity:1;stroke:#000000;stroke-width:0.264583;stroke-opacity:1"
       d="m 57.492217,196.80863 -7.483781,7.48378 3.74189,3.74137 0.700733,-0.70073 a 7.7071442,7.8181454 0 0 1 5.941238,-5.94124 l 0.841293,-0.84129 z"
       inkscape:export-xdpi="6.1575766"
       inkscape:export-ydpi="6.1575766" />
    <path
       id="path3039-5-7"
       style="opacity:1;fill:#000000;fill-opacity:1;stroke:#000000;stroke-width:0.288951;stroke-opacity:1"
       d="m 75.44564,202.53438 a 6.5014501,6.5014501 0 0 0 -6.50141,6.50192 6.5014501,6.5014501 0 0 0 6.50141,6.50141 6.5014501,6.5014501 0 0 0 5.8198,-3.60287 7.7071442,7.8181454 0 0 1 -0.54363,-2.88355 7.7071442,7.8181454 0 0 1 0.54983,-2.9006 6.5014501,6.5014501 0 0 0 -5.826,-3.61631 z"
       inkscape:export-xdpi="6.1575766"
       inkscape:export-ydpi="6.1575766" />
    <circle
       style="opacity:1;fill:#000000;fill-opacity:1;stroke:#000000;stroke-width:0.288951;stroke-opacity:1"
       id="path3039-3-7-0"
       cx="88.75975"
       cy="195.84593"
       r="6.5014501"
       inkscape:export-xdpi="6.1575766"
       inkscape:export-ydpi="6.1575766" />
    <path
       id="path3039-3-8-1-0"
       style="opacity:1;fill:#000000;fill-opacity:1;stroke:#000000;stroke-width:0.288951;stroke-opacity:1"
       d="m 91.31702,216.29943 a 7.7071442,7.8181454 0 0 1 -2.88819,0.56999 7.7071442,7.8181454 0 0 1 -2.54093,-0.43719 6.5014501,6.5014501 0 0 0 -3.64319,5.83893 6.5014501,6.5014501 0 0 0 6.50141,6.50141 6.5014501,6.5014501 0 0 0 6.50141,-6.50141 6.5014501,6.5014501 0 0 0 -3.93051,-5.97173 z"
       inkscape:export-xdpi="6.1575766"
       inkscape:export-ydpi="6.1575766" />
    <path
       id="rect3079-4-3"
       style="opacity:1;fill:#000000;fill-opacity:1;stroke:#000000;stroke-width:0.264583;stroke-opacity:1"
       d="m 83.97897,196.80863 -7.48326,7.48326 3.74189,3.74189 0.66559,-0.66559 a 7.7071442,7.8181449 0 0 1 5.97483,-5.97535 L 87.72086,200.55 Z"
       inkscape:export-xdpi="6.1575766"
       inkscape:export-ydpi="6.1575766" />
    <path
       id="rect3079-7-4-37"
       style="opacity:1;fill:#000000;fill-opacity:1;stroke:#000000;stroke-width:0.264583;stroke-opacity:1"
       d="m 80.27015,210.0502 -3.74189,3.74189 7.48379,7.48378 3.74189,-3.74189 -0.81184,-0.81184 a 7.7071442,7.8181454 0 0 1 -6.05338,-6.05338 z"
       inkscape:export-xdpi="6.1575766"
       inkscape:export-ydpi="6.1575766" />
    <path
       id="rect3079-7-4-3-4"
       style="opacity:1;fill:#000000;fill-opacity:1;stroke:#000000;stroke-width:0.264583;stroke-opacity:1"
       d="m 66.98724,196.81121 -3.74189,3.74189 1.01493,1.01493 a 7.7241405,7.8353491 0 0 1 5.06222,5.06222 l 1.40612,1.40611 3.74189,-3.74189 z"
       inkscape:export-xdpi="6.1575766"
       inkscape:export-ydpi="6.1575766" />
    <path
       id="rect3079-4-0-4"
       style="opacity:1;fill:#000000;fill-opacity:1;stroke:#000000;stroke-width:0.264583;stroke-opacity:1"
       d="m 97.19935,210.07035 -1.46141,1.46141 a 7.7071442,7.8181454 0 0 1 -4.96765,4.96766 l -1.05472,1.05471 3.74189,3.74189 7.48325,-7.48378 z"
       inkscape:export-xdpi="6.1575766"
       inkscape:export-ydpi="6.1575766" />
    <circle
       style="opacity:1;fill:#000000;fill-opacity:1;stroke:#000000;stroke-width:0.288951;stroke-opacity:1"
       id="path3039-3-8-1-8-9"
       cx="101.89729"
       cy="209.01387"
       r="6.5014501"
       inkscape:export-xdpi="6.1575766"
       inkscape:export-ydpi="6.1575766" />
    <path
       id="rect3079-7-3"
       style="opacity:1;fill:#000000;fill-opacity:1;stroke:#000000;stroke-width:0.264583;stroke-opacity:1"
       d="m 53.782883,210.05071 -3.741375,3.74138 7.483264,7.48378 3.741891,-3.74189 -0.827858,-0.82786 a 7.7071442,7.8181454 0 0 1 -5.998083,-5.99757 z"
       inkscape:export-xdpi="6.1575766"
       inkscape:export-ydpi="6.1575766" />
    <rect
       inkscape:export-ydpi="6.1575766"
       inkscape:export-xdpi="6.1575766"
       y="177.27112"
       x="42.33334"
       height="63.499714"
       width="66.145828"
       id="rect4062"
       style="opacity:0;fill:none;fill-opacity:1;stroke:none;stroke-width:0.341574;stroke-opacity:1" />
    <rect
       inkscape:export-ydpi="6.1575766"
       inkscape:export-xdpi="6.1575766"
       style="opacity:0;fill:none;fill-opacity:1;stroke:none;stroke-width:0.341574;stroke-opacity:1"
       id="rect4062-1"
       width="66.145828"
       height="63.499714"
       x="42.333347"
       y="177.27109" />
    <rect
       inkscape:export-ydpi="6.1575766"
       inkscape:export-xdpi="6.1575766"
       y="176.74178"
       x="42.333336"
       height="66"
       width="66"
       id="rect4097"
       style="opacity:0;fill:none;fill-opacity:1;stroke:none;stroke-width:0.299999;stroke-opacity:1" />
    <text
       id="text4103"
       y="251.33371"
       x="42.775467"
       style="font-style:normal;font-weight:normal;font-size:10.5833px;line-height:1.25;font-family:sans-serif;fill:#000000;fill-opacity:1;stroke:none;stroke-width:0.264583"
       xml:space="preserve"><tspan
         id="tspan4107"
         style="font-style:normal;font-variant:normal;font-weight:normal;font-stretch:normal;font-size:4.23333px;font-family:sans-serif;-inkscape-font-specification:'sans-serif, Normal';font-variant-ligatures:normal;font-variant-caps:normal;font-variant-numeric:normal;font-variant-east-asian:normal;stroke-width:0.264583"
         y="251.33371"
         x="42.775467"
         sodipodi:role="line">Favicon :carré 16x16 transparent</tspan><tspan
         id="tspan4113"
         style="font-style:normal;font-variant:normal;font-weight:normal;font-stretch:normal;font-size:4.23333px;font-family:sans-serif;-inkscape-font-specification:'sans-serif, Normal';font-variant-ligatures:normal;font-variant-caps:normal;font-variant-numeric:normal;font-variant-east-asian:normal;stroke-width:0.264583"
         y="264.56284"
         x="42.775467"
         sodipodi:role="line">Tout sélectonner pout faire l'cxport png</tspan></text>
  </g>
</svg>
