<?xml version="1.0" encoding="UTF-8" standalone="no"?>
<svg
   xmlns:dc="http://purl.org/dc/elements/1.1/"
   xmlns:cc="http://creativecommons.org/ns#"
   xmlns:rdf="http://www.w3.org/1999/02/22-rdf-syntax-ns#"
   xmlns:svg="http://www.w3.org/2000/svg"
   xmlns="http://www.w3.org/2000/svg"
   xmlns:sodipodi="http://sodipodi.sourceforge.net/DTD/sodipodi-0.dtd"
   xmlns:inkscape="http://www.inkscape.org/namespaces/inkscape"
   inkscape:version="1.0 (4035a4f, 2020-05-01)"
   sodipodi:docname="linkedin.svg"
   id="svg2099"
   version="1.1"
   class="svg-inline--fa fa-linkedin fa-w-14 fa-3x"
   viewBox="0 0 448 512"
   role="img"
   data-icon="linkedin"
   data-prefix="fab"
   focusable="false"
   aria-hidden="true">
  <metadata
     id="metadata2105">
    <rdf:RDF>
      <cc:Work
         rdf:about="">
        <dc:format>image/svg+xml</dc:format>
        <dc:type
           rdf:resource="http://purl.org/dc/dcmitype/StillImage" />
      </cc:Work>
    </rdf:RDF>
  </metadata>
  <defs
     id="defs2103" />
  <sodipodi:namedview
     inkscape:current-layer="svg2099"
     inkscape:window-maximized="0"
     inkscape:window-y="25"
     inkscape:window-x="0"
     inkscape:cy="256"
     inkscape:cx="224"
     inkscape:zoom="1.1542969"
     showgrid="false"
     id="namedview2101"
     inkscape:window-height="713"
     inkscape:window-width="1014"
     inkscape:pageshadow="2"
     inkscape:pageopacity="0"
     guidetolerance="10"
     gridtolerance="10"
     objecttolerance="10"
     borderopacity="1"
     bordercolor="#666666"
     pagecolor="#ffffff" />
  <path
     inkscape:export-ydpi="96"
     inkscape:export-xdpi="96"
     style="stroke-width:1;fill:#9f394e;fill-opacity:1"
     id="path2097"
     class=""
     d="M 416,32 H 31.9 C 14.3,32 0,46.5 0,64.3 V 447.7 C 0,465.5 14.3,480 31.9,480 H 416 c 17.6,0 32,-14.5 32,-32.3 V 64.3 C 448,46.5 433.6,32 416,32 Z M 135.4,416 H 69.000001 V 202.2 H 135.5 V 416 Z M 102.2,173 c -21.299999,0 -38.5,-17.3 -38.5,-38.5 0,-21.2 17.200001,-38.500001 38.5,-38.500001 21.2,0 38.5,17.300001 38.5,38.500001 0,21.3 -17.2,38.5 -38.5,38.5 z M 384.3,416 H 317.9 V 312 c 0,-24.8 -0.5,-56.7 -34.5,-56.7 -34.6,0 -39.9,27 -39.9,54.9 V 416 H 177.1 V 202.2 h 63.7 v 29.2 h 0.9 c 8.9,-16.8 30.6,-34.5 62.9,-34.5 67.2,0 79.7,44.3 79.7,101.9 z"
     fill="currentColor" />
</svg>
